<svg xmlns="http://www.w3.org/2000/svg" viewBox="0 0 358.53 39.58"><defs><style>.cls-1{fill:#fff;}.cls-2{fill:#fcfdfe;}.cls-3{fill:#f2f6f7;}.cls-4{fill:#cee1e6;}.cls-5{fill:#6ba8b9;}.cls-6{fill:#dae8ec;}.cls-7{fill:#e8f0f2;}.cls-8{fill:#b0d1d9;}.cls-9{fill:#6da9ba;}.cls-10{fill:#5d9cb0;}.cls-11{fill:#d2e6ea;}.cls-12{fill:#4b98ab;}.cls-13{fill:#2f8099;}.cls-14{fill:#2d819a;}.cls-15{fill:#297f98;}.cls-16{fill:#b8d6de;}.cls-17{fill:#63a4b6;}.cls-18{fill:#39879e;}.cls-19{fill:#93c0cd;}.cls-20{fill:#418aa1;}.cls-21{fill:#c3dde3;}.cls-22{fill:#4a95aa;}.cls-23{fill:#2a819a;}.cls-24{fill:#b8d7dd;}.cls-25{fill:#88bac8;}.cls-26{fill:#257e97;}.cls-27{fill:#5aa1b3;}.cls-28{fill:#cbe2e7;}.cls-29{fill:#4e92a7;}.cls-30{fill:#4796aa;}</style></defs><g id="Layer_2" data-name="Layer 2"><g id="Layer_1-2" data-name="Layer 1"><path class="cls-1" d="M2.63,29.78a17.32,17.32,0,0,0,10.82,8c8.83,2.13,18.52-4.1,20.14-13a12.83,12.83,0,0,0-.85-7.75,2.94,2.94,0,0,1-.12-.59c-.15-.77-.73-1.05-1.34-.6-.94.7-2.2.41-3.16,1.06-.4.26-.87.41-1,1-.39-.64.07-1,.46-1.43.21-.22.74-.35.51-.75A1.11,1.11,0,0,0,27,15.34c-1.21.09-1.84,1-2.55,1.81a6.3,6.3,0,0,0-.69,1.13c-.27-.7-.27-.7,1.76-3.44-.91.3-1.44-1-2.36-.25a.46.46,0,0,1-.21-.15A.32.32,0,0,1,23,14a.77.77,0,0,1,1-.2,2,2,0,0,0,1.46.23c.09-.61-.5-.49-.79-.72.36-.59.71-.53,1.11-.07s.65.74,1.15.16c.25-.3.56-.2.77.09a2.2,2.2,0,0,0,1.22.68c.76.28,1,0,.63-.68a2.76,2.76,0,0,1,0-1.37c.05-.59.46-1,.59-1.61,0-.14,0-.29-.09-.41a.91.91,0,0,1,.06.4c-.09.44-.38.8-.5,1.24s-.09,1-.27,1.55A1.33,1.33,0,0,1,29,13.1c-1.53-1.41-3.34-1.41-5.23-1.12a6.93,6.93,0,0,1-.91,0c-.31,0-.63.05-.8-.27a.38.38,0,0,1,.06-.36.89.89,0,0,1,.94-.11c.22.11.41.25.66.1.05-.29-.23-.38-.36-.55-1-1.34-1-1.34-2.55-.71A1.09,1.09,0,0,1,19.25,9c0-.83.57-1.66.13-2.46-.6-1.07-.74-2.36-1.61-3.29.12-.34-.21-.55-.23-.85a2.78,2.78,0,0,0,0-.5c-.1-.5-.68-1-.08-1.47A3,3,0,0,1,19.26,0a12.78,12.78,0,0,1,4.49,1c.28.1.43.06.52.49.15.73,1.06.88,1.53,1.43.16.19.49.24.52.57-.27.18-.53.06-.8,0a1.15,1.15,0,0,0-.37,0c.39-.09.78.27,1.16,0,.11.23.51.54-.16.55a2.45,2.45,0,0,0-1.38.28c.63.38,1.21.1,1.73.23,0,0,0,0,.05.08l-.23.13c-.26.11-.25.25,0,.4-.05.16-.18.36-.12.46s.28.06.39,0a.68.68,0,0,1,1.13,0,1.18,1.18,0,0,0,1,.38c.29,0,.44.48.92.82s1.12,0,1.33.74c.73-.29,1.06.23,1.43.69s.53.68,1,.59c.26.22,0,.7.44.83.5.56,1.15.94,1.07,1.95,0,.45.5,1.06.65,1.7a35.82,35.82,0,0,1,1.12,9c-.13,7.84-5.95,14.83-13.9,16.78a18.42,18.42,0,0,1-20.14-8.5c-.1-.17-.17-.36-.26-.55S2.44,29.75,2.63,29.78Z"/><path class="cls-2" d="M.79,16.44A16.51,16.51,0,0,1,11.64,5.1a14.39,14.39,0,0,1,5.08-.86c.45,0,.74.06.91.57s.08.69-.5.7C9.34,5.76,4,9.55,1,16.7.77,16.72.71,16.63.79,16.44Z"/><path class="cls-3" d="M15.1,13.7A6.61,6.61,0,0,0,18.34,12c.66-.69,3.09-.43,3.61.29a1.65,1.65,0,0,1-1.07.11,4.53,4.53,0,0,0-3.13.87,4.65,4.65,0,0,1-2.41.67C15.13,14,15.09,13.88,15.1,13.7Z"/><path class="cls-4" d="M2.63,29.78,2.42,30a6.4,6.4,0,0,1-.94-1.93L1.69,28Z"/><path class="cls-5" d="M29.36,13.27c.06-.56-.18-1.16.18-1.69.2.08.08.32.21.43l-.21,1.46Z"/><path class="cls-6" d="M15.1,13.7l.24.19-1.49.43C14.26,13.76,14.73,13.84,15.1,13.7Z"/><path class="cls-7" d="M.79,16.44,1,16.7l-.3,1A1.19,1.19,0,0,1,.79,16.44Z"/><path class="cls-8" d="M33.88,9.59c-.58-.05-.39-.5-.44-.83C34.12,8.75,33.62,9.37,33.88,9.59Z"/><path class="cls-9" d="M.37,19.13.12,20.42c-.14-.6-.22-1,.11-1.26C.27,19.08.31,19.06.37,19.13Z"/><path class="cls-10" d="M26.29,5.12c-.24-.1-.46.31-.74,0a.76.76,0,0,1,.77-.41Z"/><path class="cls-11" d="M.37,19.13l-.14,0a1.38,1.38,0,0,1,.33-1.25Z"/><path class="cls-12" d="M17.54,2.44c.09.28.63.44.23.85C17.66,3,17.3,2.81,17.54,2.44Z"/><path class="cls-13" d="M21.82,4.11c.47,0,.71-.49,1.17-.62.32.71.91,1.35.41,2.4-.27-.91-.61-1.62-1.58-1.61-.07,0-.09-.08-.07-.11A.1.1,0,0,1,21.82,4.11Z"/><path class="cls-14" d="M29.75,12c-.19-.08-.17-.27-.21-.43A2.84,2.84,0,0,1,30,10.4a.21.21,0,0,1,.35,0C30.47,11.06,29.81,11.43,29.75,12Z"/><path class="cls-15" d="M26.51,7.1a.72.72,0,0,1,.63.41c.09.25.15.48-.25.46l-1-.83A.55.55,0,0,1,26.51,7.1Z"/><path class="cls-16" d="M26.51,7.1l-.6,0C25.36,7,24.79,7.49,24,7A5,5,0,0,1,26.51,7.1Z"/><path class="cls-17" d="M26.89,8c.22-.08.23-.27.25-.46.38.52.15,1.1.16,1.65-.06.11-.12.11-.2,0C26.87,8.81,27,8.37,26.89,8Z"/><path class="cls-18" d="M21.82,4.11v.17a1.44,1.44,0,0,1-1.41-.17Z"/><path class="cls-19" d="M24.7,9.78c-.28-.1-.68.17-.92-.32a2.21,2.21,0,0,1,1.14,0,.32.32,0,0,1,0,.37A.17.17,0,0,1,24.7,9.78Z"/><path class="cls-20" d="M20.33.9c.26-.17.52-.31.81-.13,0,0,.05.19,0,.23C20.85,1.28,20.58,1.21,20.33.9Z"/><path class="cls-21" d="M32.85,11l-.73-.79C32.57,10.19,32.83,10.43,32.85,11Z"/><path class="cls-22" d="M26.31,3.45a1.64,1.64,0,0,1-1.67,0c.24-.23.59,0,.84-.18l.84.18Z"/><path class="cls-23" d="M22.51,2.28c.37.35.46.61.09.92C22.32,2.93,22.36,2.64,22.51,2.28Z"/><path class="cls-24" d="M19,2a1.68,1.68,0,0,1,1.34.37A2.33,2.33,0,0,1,19,2Z"/><path class="cls-25" d="M27.1,9.18l.2,0a2.94,2.94,0,0,1-.08,1.31A2.62,2.62,0,0,1,27.1,9.18Z"/><path class="cls-26" d="M24.85,9.77c0-.12,0-.23.07-.35s.31-.07.33,0c.15.25-.11.39-.19.59C24.88,10,24.79,10,24.85,9.77Z"/><path class="cls-27" d="M24.85,9.77l.21.21c0,.19,0,.5-.27.43s-.11-.4-.09-.63A.38.38,0,0,0,24.85,9.77Z"/><path class="cls-28" d="M19,2a.94.94,0,0,1-.65-.28c.37-.25.5,0,.66.27Z"/><path class="cls-29" d="M25.48,3.29c-.23.27-.56.14-.84.18C24.81,2.91,25.19,3.31,25.48,3.29Z"/><path class="cls-30" d="M30.34,10.4H30V9.75l.13,0Z"/><path class="cls-1" d="M87.7,2.47a4.89,4.89,0,0,0-4.08,1.67,6.61,6.61,0,0,0-1.32,4.2V31.21a6.56,6.56,0,0,0,1.32,4.19,4.85,4.85,0,0,0,4.08,1.69v1.5H75.94L56.14,10.14V31.21a6.56,6.56,0,0,0,1.32,4.19,4.85,4.85,0,0,0,4.08,1.69v1.5H48v-1.5a4.89,4.89,0,0,0,4.08-1.66,6.45,6.45,0,0,0,1.32-4.17V8.34a6.61,6.61,0,0,0-1.32-4.2A4.89,4.89,0,0,0,48,2.47V1H59.8L79.54,29.4V8.4a6.67,6.67,0,0,0-1.32-4.22,4.83,4.83,0,0,0-4.08-1.71V1H87.7Z"/><path class="cls-1" d="M107.44,1a19.68,19.68,0,0,1,18.3,11.82,18.53,18.53,0,0,1,1.56,7.55,18,18,0,0,1-1.56,7.45,19.57,19.57,0,0,1-4.26,6.09,20.1,20.1,0,0,1-14,5.6,20.37,20.37,0,0,1-7.8-1.5,19.88,19.88,0,0,1-6.36-4.1A19.57,19.57,0,0,1,89,27.79a18,18,0,0,1-1.56-7.45A18.53,18.53,0,0,1,89,12.79,19.38,19.38,0,0,1,99.64,2.47,20.37,20.37,0,0,1,107.44,1Zm0,36.89a7.34,7.34,0,0,0,4.24-1.38,12.16,12.16,0,0,0,3.49-3.75,20.64,20.64,0,0,0,2.34-5.58,25.41,25.41,0,0,0,.88-6.81,26.44,26.44,0,0,0-.88-7,21.13,21.13,0,0,0-2.34-5.63A12.28,12.28,0,0,0,111.65,4a7.41,7.41,0,0,0-4.24-1.38A7.5,7.5,0,0,0,103.1,4a12.25,12.25,0,0,0-3.48,3.78,20.82,20.82,0,0,0-2.35,5.63,26.86,26.86,0,0,0-.87,7,25.82,25.82,0,0,0,.87,6.81,20.34,20.34,0,0,0,2.35,5.58,12.13,12.13,0,0,0,3.48,3.75A7.43,7.43,0,0,0,107.41,37.86Z"/><path class="cls-1" d="M162.4,1,164,10.44l-1.14.42a11.61,11.61,0,0,0-1.59-3,12,12,0,0,0-2.16-2.22,10,10,0,0,0-2.46-1.38,7.49,7.49,0,0,0-2.55-.47h-4V31.21a13.5,13.5,0,0,0,.18,2.3,5,5,0,0,0,.69,1.87,3.4,3.4,0,0,0,1.38,1.25,4.89,4.89,0,0,0,2.25.46v1.5H137.5v-1.5a4.89,4.89,0,0,0,2.25-.46,3.4,3.4,0,0,0,1.38-1.25,5,5,0,0,0,.69-1.87,13.5,13.5,0,0,0,.18-2.3V3.79h-4a7.49,7.49,0,0,0-2.55.47A10,10,0,0,0,133,5.64a11.27,11.27,0,0,0-2.13,2.22,12.18,12.18,0,0,0-1.56,3l-1.2-.42L129.76,1Z"/><path class="cls-1" d="M177.16,20.76V31.21a4.65,4.65,0,0,0,1.2,3.35,4.19,4.19,0,0,0,3.18,1.27h9.6a6.21,6.21,0,0,0,4.23-1.45,5,5,0,0,0,1.65-4h1.56v8.16H164.44v-1.5a4.38,4.38,0,0,0,2.19-.49A3.42,3.42,0,0,0,168,35.31a5.82,5.82,0,0,0,.69-1.85,11.17,11.17,0,0,0,.21-2.2V8.4a8.47,8.47,0,0,0-1-4.22,3.64,3.64,0,0,0-3.48-1.71V1h34.14V9.13H197a4.83,4.83,0,0,0-1.71-4.05,6.53,6.53,0,0,0-4.17-1.36H181.6c-1.68,0-2.84.42-3.48,1.24a5.35,5.35,0,0,0-1,3.38V19.21A8.15,8.15,0,0,0,180,17.34a11,11,0,0,0,2-2.7,11.91,11.91,0,0,0,3.84,3.72A11.56,11.56,0,0,0,190.39,20a13,13,0,0,0,5-.33,16.36,16.36,0,0,0,4.8-2.06l.3.59a17.34,17.34,0,0,1-5.19,4,18.68,18.68,0,0,1-6.27,2,17,17,0,0,1-6.36-.35A11.73,11.73,0,0,1,177.16,20.76Z"/><path class="cls-1" d="M249.1,8.34V31.21a13.5,13.5,0,0,0,.18,2.3,5.39,5.39,0,0,0,.66,1.87,3.2,3.2,0,0,0,1.35,1.25,4.89,4.89,0,0,0,2.25.46v1.5h-17.1v-1.5c1.84,0,3.05-.56,3.63-1.69a8.87,8.87,0,0,0,.87-4.14v-9a18.71,18.71,0,0,1-8.55,2.09,15.11,15.11,0,0,1-4.58-.71,12.47,12.47,0,0,1-4.15-2.34v10a13.5,13.5,0,0,0,.18,2.3,5,5,0,0,0,.69,1.87,3.4,3.4,0,0,0,1.38,1.25,4.89,4.89,0,0,0,2.25.46v1.5H211v-1.5c1.84,0,3.05-.56,3.63-1.69a8.87,8.87,0,0,0,.87-4.14V8.4a14.34,14.34,0,0,0-.18-2.34,5,5,0,0,0-.69-1.88,3.42,3.42,0,0,0-1.38-1.26A5.41,5.41,0,0,0,211,2.4V1h17.1v1.5a5.59,5.59,0,0,0-2.25.5,3.38,3.38,0,0,0-1.35,1.24A5,5,0,0,0,223.84,6a13.67,13.67,0,0,0-.18,2.3l0,10.56a10.19,10.19,0,0,0,4.13-4.31,11.89,11.89,0,0,0,1.66,2,12.49,12.49,0,0,0,2.28,1.8,12,12,0,0,0,6.28,1.78,12,12,0,0,0,2.89-.37V8.4a13.8,13.8,0,0,0-.18-2.31,5.12,5.12,0,0,0-.69-1.86A3.5,3.5,0,0,0,238.69,3a5.59,5.59,0,0,0-2.25-.5V1h17.1v1.5a5.59,5.59,0,0,0-2.25.5,3.38,3.38,0,0,0-1.35,1.24A5,5,0,0,0,249.28,6,13.67,13.67,0,0,0,249.1,8.34Z"/><path class="cls-1" d="M268.9,8.34V31.21a13.5,13.5,0,0,0,.18,2.3,5,5,0,0,0,.69,1.87,3.4,3.4,0,0,0,1.38,1.25,4.89,4.89,0,0,0,2.25.46v1.5H256.24v-1.5a4.89,4.89,0,0,0,2.25-.46,3.4,3.4,0,0,0,1.38-1.25,5.22,5.22,0,0,0,.69-1.87,13.5,13.5,0,0,0,.18-2.3V8.29A13.83,13.83,0,0,0,260.56,6a5.08,5.08,0,0,0-.69-1.83,3.63,3.63,0,0,0-1.38-1.22,4.77,4.77,0,0,0-2.25-.45V1H273.4v1.5a4.77,4.77,0,0,0-2.25.45,3.42,3.42,0,0,0-1.38,1.26A5.05,5.05,0,0,0,269.08,6,13.67,13.67,0,0,0,268.9,8.34Z"/><path class="cls-1" d="M306.7,1h13.56v1.5a5,5,0,0,0-3.45,1.37,10.71,10.71,0,0,0-2.49,3.42L299.5,38.59h-3.24l-15.6-33.3a7,7,0,0,0-1.44-1.95,3.57,3.57,0,0,0-2.59-.87V1H293.8v1.5a3.73,3.73,0,0,0-2,.5,3,3,0,0,0-1.11,1.26,3.72,3.72,0,0,0-.31,1.62,3.93,3.93,0,0,0,.4,1.59l10.08,21.42L310.54,8.4a5,5,0,0,0,.54-2.52A3.81,3.81,0,0,0,310.36,4a3.8,3.8,0,0,0-1.59-1.17,5.59,5.59,0,0,0-2.07-.38Z"/><path class="cls-1" d="M335.26,20.76V31.21a4.64,4.64,0,0,0,1.19,3.35,4.19,4.19,0,0,0,3.18,1.27h9.6a6.25,6.25,0,0,0,4.24-1.45,5,5,0,0,0,1.64-4h1.57v8.16H322.53v-1.5a4.38,4.38,0,0,0,2.19-.49,3.42,3.42,0,0,0,1.35-1.29,5.82,5.82,0,0,0,.69-1.85,11.17,11.17,0,0,0,.21-2.2V8.4a8.47,8.47,0,0,0-1-4.22,3.63,3.63,0,0,0-3.48-1.71V1h34.15V9.13h-1.57a4.83,4.83,0,0,0-1.71-4.05,6.53,6.53,0,0,0-4.17-1.36h-9.54c-1.68,0-2.84.42-3.47,1.24a5.29,5.29,0,0,0-1,3.38V19.21A8.21,8.21,0,0,0,338,17.34a11,11,0,0,0,1.95-2.7,11.91,11.91,0,0,0,3.84,3.72A11.56,11.56,0,0,0,348.48,20a13,13,0,0,0,4.95-.33,16.36,16.36,0,0,0,4.8-2.06l.3.59a17.34,17.34,0,0,1-5.19,4,18.68,18.68,0,0,1-6.27,2,16.92,16.92,0,0,1-6.35-.35A11.64,11.64,0,0,1,335.26,20.76Z"/></g></g></svg>